<svg width="42" height="69" viewBox="0 0 42 69" fill="none" xmlns="http://www.w3.org/2000/svg">
<circle cx="24" cy="24" r="24" fill="#407FC5"/>
<path d="M15.528 64H16.968L13.98 55.648H12.396L9.408 64H10.836L11.436 62.296H14.928L15.528 64ZM14.544 61.18H11.82L13.188 57.304L14.544 61.18ZM22.9592 64H24.3152V60.1C24.3152 58.252 23.1512 57.28 21.6032 57.28C20.8112 57.28 20.0792 57.604 19.6352 58.144V57.388H18.2672V64H19.6352V60.304C19.6352 59.092 20.2952 58.468 21.3032 58.468C22.2992 58.468 22.9592 59.092 22.9592 60.304V64ZM25.6042 60.664C25.6042 62.704 26.9842 64.108 28.7002 64.108C29.8042 64.108 30.5962 63.58 31.0162 63.016V64H32.3962V57.388H31.0162V58.348C30.6082 57.808 29.8402 57.28 28.7242 57.28C26.9842 57.28 25.6042 58.624 25.6042 60.664ZM31.0162 60.688C31.0162 62.116 30.0442 62.92 29.0122 62.92C27.9922 62.92 27.0082 62.092 27.0082 60.664C27.0082 59.236 27.9922 58.468 29.0122 58.468C30.0442 58.468 31.0162 59.272 31.0162 60.688ZM34.193 64H35.561V61.156L38.009 64H39.857L36.809 60.7L39.857 57.388H37.961L35.561 60.28V55.12H34.193V64Z" fill="#407FC5"/>
<path d="M24 36C30.6274 36 36 30.6274 36 24C36 17.3726 30.6274 12 24 12C17.3726 12 12 17.3726 12 24C12 30.6274 17.3726 36 24 36Z" stroke="white" stroke-width="2" stroke-linecap="round" stroke-linejoin="round"/>
<path d="M19.5 25.5C20.3284 25.5 21 24.8284 21 24C21 23.1716 20.3284 22.5 19.5 22.5C18.6716 22.5 18 23.1716 18 24C18 24.8284 18.6716 25.5 19.5 25.5Z" fill="white"/>
<path d="M28.5 25.5C29.3284 25.5 30 24.8284 30 24C30 23.1716 29.3284 22.5 28.5 22.5C27.6716 22.5 27 23.1716 27 24C27 24.8284 27.6716 25.5 28.5 25.5Z" fill="white"/>
<path d="M27.3172 29.0003C26.3338 29.6523 25.18 30 24.0001 30C22.8201 30 21.6664 29.6524 20.6829 29.0005" stroke="white" stroke-width="2" stroke-linecap="round" stroke-linejoin="round"/>
<path d="M24 12C22 14.5 22 17 22 17C22 17.5304 22.2107 18.0391 22.5858 18.4142C22.9609 18.7893 23.4696 19 24 19C24.5304 19 25.0391 18.7893 25.4142 18.4142C25.7893 18.0391 26 17.5304 26 17" stroke="white" stroke-width="2" stroke-linecap="round" stroke-linejoin="round"/>
</svg>
