<svg width="48" height="69" viewBox="0 0 48 69" fill="none" xmlns="http://www.w3.org/2000/svg">
<circle cx="24" cy="24" r="24" fill="#407FC5"/>
<path fill-rule="evenodd" clip-rule="evenodd" d="M14 22C14 18.2288 14 16.3431 15.1716 15.1716C16.3431 14 18.2288 14 22 14H26C29.7712 14 31.6569 14 32.8284 15.1716C34 16.3431 34 18.2288 34 22V26C34 29.7712 34 31.6569 32.8284 32.8284C31.6569 34 29.7712 34 26 34H22C18.2288 34 16.3431 34 15.1716 32.8284C14 31.6569 14 29.7712 14 26V22ZM19.7387 28.4465C20.9612 27.5085 22.4591 27 24 27C25.5409 27 27.0388 27.5085 28.2613 28.4465C29.4838 29.3846 30.3627 30.6998 30.7615 32.1883C30.9044 32.7217 30.5878 33.2701 30.0544 33.413C29.5209 33.556 28.9726 33.2394 28.8296 32.7059C28.5448 31.6427 27.917 30.7033 27.0438 30.0332C26.1706 29.3632 25.1007 29 24 29C22.8993 29 21.8294 29.3632 20.9562 30.0332C20.083 30.7033 19.4552 31.6427 19.1704 32.7059C19.0274 33.2394 18.4791 33.556 17.9456 33.413C17.4122 33.2701 17.0956 32.7217 17.2385 32.1883C17.6373 30.6998 18.5162 29.3846 19.7387 28.4465ZM22 21C22 19.8954 22.8954 19 24 19C25.1046 19 26 19.8954 26 21C26 22.1046 25.1046 23 24 23C22.8954 23 22 22.1046 22 21ZM24 17C21.7909 17 20 18.7909 20 21C20 23.2091 21.7909 25 24 25C26.2091 25 28 23.2091 28 21C28 18.7909 26.2091 17 24 17Z" fill="white"/>
<rect x="14.5" y="14.5" width="19" height="19" rx="3.5" stroke="white"/>
<path d="M5.604 61.612C5.604 62.416 5.04 62.884 4.116 62.884H2.268V60.28H4.068C4.98 60.28 5.604 60.784 5.604 61.612ZM5.388 57.976C5.388 58.744 4.848 59.164 3.96 59.164H2.268V56.776H3.96C4.848 56.776 5.388 57.22 5.388 57.976ZM6.972 61.756C6.972 60.76 6.252 59.872 5.364 59.716C6.168 59.428 6.78 58.816 6.78 57.808C6.78 56.632 5.844 55.66 4.08 55.66H0.9V64H4.236C5.94 64 6.972 63.028 6.972 61.756ZM8.45859 64H9.82659V57.388H8.45859V64ZM9.15459 56.512C9.63459 56.512 10.0186 56.128 10.0186 55.636C10.0186 55.144 9.63459 54.76 9.15459 54.76C8.66259 54.76 8.27859 55.144 8.27859 55.636C8.27859 56.128 8.66259 56.512 9.15459 56.512ZM17.9227 60.688C17.9227 58.612 16.4347 57.28 14.5507 57.28C12.6667 57.28 11.1787 58.612 11.1787 60.688C11.1787 62.764 12.6067 64.108 14.4907 64.108C16.3867 64.108 17.9227 62.764 17.9227 60.688ZM12.5707 60.688C12.5707 59.188 13.4947 58.468 14.5267 58.468C15.5467 58.468 16.5187 59.188 16.5187 60.688C16.5187 62.188 15.5107 62.92 14.4907 62.92C13.4587 62.92 12.5707 62.188 12.5707 60.688ZM18.819 60.664C18.819 62.704 20.199 64.108 21.939 64.108C23.019 64.108 23.811 63.604 24.231 63.004V64H25.611V55.12H24.231V58.312C23.727 57.688 22.815 57.28 21.951 57.28C20.199 57.28 18.819 58.624 18.819 60.664ZM24.231 60.688C24.231 62.116 23.259 62.92 22.227 62.92C21.207 62.92 20.223 62.092 20.223 60.664C20.223 59.236 21.207 58.468 22.227 58.468C23.259 58.468 24.231 59.272 24.231 60.688ZM26.9518 60.664C26.9518 62.704 28.3318 64.108 30.0478 64.108C31.1518 64.108 31.9438 63.58 32.3638 63.016V64H33.7438V57.388H32.3638V58.348C31.9558 57.808 31.1878 57.28 30.0718 57.28C28.3318 57.28 26.9518 58.624 26.9518 60.664ZM32.3638 60.688C32.3638 62.116 31.3918 62.92 30.3598 62.92C29.3398 62.92 28.3558 62.092 28.3558 60.664C28.3558 59.236 29.3398 58.468 30.3598 58.468C31.3918 58.468 32.3638 59.272 32.3638 60.688ZM35.7566 62.164C35.7566 63.508 36.4886 64 37.6646 64H38.7446V62.86H37.9046C37.3286 62.86 37.1366 62.656 37.1366 62.164V58.504H38.7446V57.388H37.1366V55.744H35.7566V57.388H34.9766V58.504H35.7566V62.164ZM39.5495 60.664C39.5495 62.704 40.9295 64.108 42.6455 64.108C43.7495 64.108 44.5415 63.58 44.9615 63.016V64H46.3415V57.388H44.9615V58.348C44.5535 57.808 43.7855 57.28 42.6695 57.28C40.9295 57.28 39.5495 58.624 39.5495 60.664ZM44.9615 60.688C44.9615 62.116 43.9895 62.92 42.9575 62.92C41.9375 62.92 40.9535 62.092 40.9535 60.664C40.9535 59.236 41.9375 58.468 42.9575 58.468C43.9895 58.468 44.9615 59.272 44.9615 60.688Z" fill="#407FC5"/>
</svg>
