<svg width="48" height="71" viewBox="0 0 48 71" fill="none" xmlns="http://www.w3.org/2000/svg">
<circle cx="24" cy="24" r="24" fill="#407FC5"/>
<path d="M19.0948 65.01C19.0948 65.68 18.6248 66.07 17.8548 66.07H16.3148V63.9H17.8148C18.5748 63.9 19.0948 64.32 19.0948 65.01ZM18.9148 61.98C18.9148 62.62 18.4648 62.97 17.7248 62.97H16.3148V60.98H17.7248C18.4648 60.98 18.9148 61.35 18.9148 61.98ZM20.2348 65.13C20.2348 64.3 19.6348 63.56 18.8948 63.43C19.5648 63.19 20.0748 62.68 20.0748 61.84C20.0748 60.86 19.2948 60.05 17.8248 60.05H15.1748V67H17.9548C19.3748 67 20.2348 66.19 20.2348 65.13ZM21.4636 64.46C21.4636 66.23 22.7036 67.07 24.1636 67.07C25.6136 67.07 26.8936 66.23 26.8936 64.46V60.05H25.7536V64.48C25.7536 65.56 25.1436 66.07 24.1736 66.07C23.2136 66.07 22.6036 65.56 22.6036 64.48V60.05H21.4636V64.46ZM29.5179 63.25V60.98H30.7779C31.6679 60.98 32.0679 61.4 32.0679 62.12C32.0679 62.82 31.6679 63.25 30.7779 63.25H29.5179ZM33.2379 62.12C33.2379 60.99 32.4279 60.05 30.7779 60.05H28.3779V67H29.5179V64.18H30.7779C32.5879 64.18 33.2379 63.11 33.2379 62.12Z" fill="#407FC5"/>
<path d="M23.5 29.0312C25.502 29.0312 27.125 27.4083 27.125 25.4062C27.125 23.4042 25.502 21.7812 23.5 21.7812C21.498 21.7812 19.875 23.4042 19.875 25.4062C19.875 27.4083 21.498 29.0312 23.5 29.0312Z" stroke="white" stroke-width="2" stroke-linecap="round" stroke-linejoin="round"/>
<path d="M18.0625 31.7498C18.6957 30.9057 19.5167 30.2206 20.4605 29.7488C21.4043 29.2769 22.445 29.0313 23.5002 29.0313C24.5553 29.0312 25.596 29.2768 26.5399 29.7486C27.4837 30.2204 28.3047 30.9055 28.938 31.7495" stroke="white" stroke-width="2" stroke-linecap="round" stroke-linejoin="round"/>
<path d="M32.5625 34.4688V14.5312C32.5625 14.0307 32.1568 13.625 31.6562 13.625L15.3438 13.625C14.8432 13.625 14.4375 14.0307 14.4375 14.5313V34.4688C14.4375 34.9693 14.8432 35.375 15.3438 35.375H31.6562C32.1568 35.375 32.5625 34.9693 32.5625 34.4688Z" stroke="white" stroke-width="2" stroke-linecap="round" stroke-linejoin="round"/>
<path d="M19.875 17.25H27.125" stroke="white" stroke-width="2" stroke-linecap="round" stroke-linejoin="round"/>
</svg>
