<svg width="64" height="78" viewBox="0 0 64 78" fill="none" xmlns="http://www.w3.org/2000/svg">
<circle cx="29" cy="24" r="24" fill="#407FC5"/>
<path d="M18.5386 52.05H16.2686V59H18.5386C20.7686 59 22.2286 57.69 22.2286 55.55C22.2286 53.4 20.7686 52.05 18.5386 52.05ZM17.4086 58.07V52.98H18.5386C20.1786 52.98 21.0586 53.96 21.0586 55.55C21.0586 57.13 20.1786 58.07 18.5386 58.07H17.4086ZM22.9784 56.22C22.9784 57.92 24.1284 59.09 25.5584 59.09C26.4784 59.09 27.1384 58.65 27.4884 58.18V59H28.6384V53.49H27.4884V54.29C27.1484 53.84 26.5084 53.4 25.5784 53.4C24.1284 53.4 22.9784 54.52 22.9784 56.22ZM27.4884 56.24C27.4884 57.43 26.6784 58.1 25.8184 58.1C24.9684 58.1 24.1484 57.41 24.1484 56.22C24.1484 55.03 24.9684 54.39 25.8184 54.39C26.6784 54.39 27.4884 55.06 27.4884 56.24ZM30.3157 57.47C30.3157 58.59 30.9257 59 31.9057 59H32.8057V58.05H32.1057C31.6257 58.05 31.4657 57.88 31.4657 57.47V54.42H32.8057V53.49H31.4657V52.12H30.3157V53.49H29.6657V54.42H30.3157V57.47ZM33.4764 56.22C33.4764 57.92 34.6264 59.09 36.0564 59.09C36.9764 59.09 37.6364 58.65 37.9864 58.18V59H39.1364V53.49H37.9864V54.29C37.6464 53.84 37.0064 53.4 36.0764 53.4C34.6264 53.4 33.4764 54.52 33.4764 56.22ZM37.9864 56.24C37.9864 57.43 37.1764 58.1 36.3164 58.1C35.4664 58.1 34.6464 57.41 34.6464 56.22C34.6464 55.03 35.4664 54.39 36.3164 54.39C37.1764 54.39 37.9864 55.06 37.9864 56.24ZM-1.3907 74H0.0992974L-2.9707 70.53L0.0492975 67.05H-1.3807L-4.0807 70.22V67.05H-5.2207V74H-4.0807V70.89L-1.3907 74ZM3.42742 69.36C4.27742 69.36 4.94742 69.9 4.96742 70.75H1.91742C2.03742 69.88 2.65742 69.36 3.42742 69.36ZM6.00742 72.36H4.77742C4.56742 72.79 4.17742 73.13 3.47742 73.13C2.63742 73.13 1.98742 72.58 1.90742 71.67H6.11742C6.14742 71.48 6.15742 71.3 6.15742 71.11C6.15742 69.49 5.04742 68.4 3.47742 68.4C1.84742 68.4 0.727422 69.51 0.727422 71.24C0.727422 72.97 1.89742 74.09 3.47742 74.09C4.82742 74.09 5.69742 73.32 6.00742 72.36ZM8.4193 69.3V68.49H7.2793V76.62H8.4193V73.2C8.7793 73.63 9.4293 74.09 10.3393 74.09C11.7893 74.09 12.9293 72.92 12.9293 71.22C12.9293 69.52 11.7893 68.4 10.3393 68.4C9.4393 68.4 8.7693 68.84 8.4193 69.3ZM11.7693 71.22C11.7693 72.41 10.9493 73.1 10.0893 73.1C9.2393 73.1 8.4193 72.43 8.4193 71.24C8.4193 70.06 9.2393 69.39 10.0893 69.39C10.9493 69.39 11.7693 70.03 11.7693 71.22ZM16.3766 69.36C17.2266 69.36 17.8966 69.9 17.9166 70.75H14.8666C14.9866 69.88 15.6066 69.36 16.3766 69.36ZM18.9566 72.36H17.7266C17.5166 72.79 17.1266 73.13 16.4266 73.13C15.5866 73.13 14.9366 72.58 14.8566 71.67H19.0666C19.0966 71.48 19.1066 71.3 19.1066 71.11C19.1066 69.49 17.9966 68.4 16.4266 68.4C14.7966 68.4 13.6766 69.51 13.6766 71.24C13.6766 72.97 14.8466 74.09 16.4266 74.09C17.7766 74.09 18.6466 73.32 18.9566 72.36ZM19.8485 71.22C19.8485 72.92 20.9985 74.09 22.4485 74.09C23.3485 74.09 24.0085 73.64 24.3585 73.17V74.09C24.3585 75.19 23.6985 75.73 22.8185 75.73C22.0285 75.73 21.4185 75.34 21.2485 74.77H20.1185C20.2585 75.99 21.3485 76.72 22.8185 76.72C24.5385 76.72 25.5085 75.59 25.5085 74.09V68.49H24.3585V69.29C24.0185 68.82 23.3485 68.4 22.4485 68.4C20.9985 68.4 19.8485 69.52 19.8485 71.22ZM24.3585 71.24C24.3585 72.43 23.5485 73.1 22.6885 73.1C21.8385 73.1 21.0185 72.41 21.0185 71.22C21.0185 70.03 21.8385 69.39 22.6885 69.39C23.5485 69.39 24.3585 70.06 24.3585 71.24ZM26.6259 71.22C26.6259 72.92 27.7759 74.09 29.2059 74.09C30.1259 74.09 30.7859 73.65 31.1359 73.18V74H32.2859V68.49H31.1359V69.29C30.7959 68.84 30.1559 68.4 29.2259 68.4C27.7759 68.4 26.6259 69.52 26.6259 71.22ZM31.1359 71.24C31.1359 72.43 30.3259 73.1 29.4659 73.1C28.6159 73.1 27.7959 72.41 27.7959 71.22C27.7959 70.03 28.6159 69.39 29.4659 69.39C30.3259 69.39 31.1359 70.06 31.1359 71.24ZM34.8532 74H36.0532L37.1632 69.93L38.2732 74H39.4732L41.1832 68.49H40.0632L38.9232 72.9L37.8032 68.49H36.6132L35.4432 72.92L34.2932 68.49H33.1332L34.8532 74ZM41.6552 71.22C41.6552 72.92 42.8052 74.09 44.2352 74.09C45.1552 74.09 45.8152 73.65 46.1652 73.18V74H47.3152V68.49H46.1652V69.29C45.8252 68.84 45.1852 68.4 44.2552 68.4C42.8052 68.4 41.6552 69.52 41.6552 71.22ZM46.1652 71.24C46.1652 72.43 45.3552 73.1 44.4952 73.1C43.6452 73.1 42.8252 72.41 42.8252 71.22C42.8252 70.03 43.6452 69.39 44.4952 69.39C45.3552 69.39 46.1652 70.06 46.1652 71.24ZM48.8125 74H49.9525V68.49H48.8125V74ZM49.3925 67.76C49.7925 67.76 50.1125 67.44 50.1125 67.03C50.1125 66.62 49.7925 66.3 49.3925 66.3C48.9825 66.3 48.6625 66.62 48.6625 67.03C48.6625 67.44 48.9825 67.76 49.3925 67.76ZM51.0692 71.22C51.0692 72.92 52.2192 74.09 53.6492 74.09C54.5692 74.09 55.2292 73.65 55.5792 73.18V74H56.7292V68.49H55.5792V69.29C55.2392 68.84 54.5992 68.4 53.6692 68.4C52.2192 68.4 51.0692 69.52 51.0692 71.22ZM55.5792 71.24C55.5792 72.43 54.7692 73.1 53.9092 73.1C53.0592 73.1 52.2392 72.41 52.2392 71.22C52.2392 70.03 53.0592 69.39 53.9092 69.39C54.7692 69.39 55.5792 70.06 55.5792 71.24ZM62.1366 74H63.2666V70.75C63.2666 69.21 62.2966 68.4 61.0066 68.4C60.3466 68.4 59.7366 68.67 59.3666 69.12V68.49H58.2266V74H59.3666V70.92C59.3666 69.91 59.9166 69.39 60.7566 69.39C61.5866 69.39 62.1366 69.91 62.1366 70.92V74Z" fill="#407FC5"/>
<path d="M37.1668 29.8333V30.8333C37.7191 30.8333 38.1668 30.3856 38.1668 29.8333H37.1668ZM35.8928 13.7543L35.4388 14.6453L35.4388 14.6453L35.8928 13.7543ZM36.9125 14.774L36.0215 15.228L36.0215 15.228L36.9125 14.774ZM22.1075 13.7543L21.6535 12.8633H21.6535L22.1075 13.7543ZM21.0878 14.774L20.1968 14.32V14.32L21.0878 14.774ZM37.1668 35.5C37.7191 35.5 38.1668 35.0523 38.1668 34.5C38.1668 33.9477 37.7191 33.5 37.1668 33.5V35.5ZM37.0002 29.8333C37.0002 29.281 36.5524 28.8333 36.0002 28.8333C35.4479 28.8333 35.0002 29.281 35.0002 29.8333H37.0002ZM35.0002 34.5C35.0002 35.0523 35.4479 35.5 36.0002 35.5C36.5524 35.5 37.0002 35.0523 37.0002 34.5H35.0002ZM31.5297 25.9912C31.6629 26.5272 32.2054 26.8537 32.7414 26.7205C33.2774 26.5872 33.6039 26.0448 33.4706 25.5088L31.5297 25.9912ZM24.5297 25.5088C24.3965 26.0448 24.723 26.5872 25.2589 26.7205C25.7949 26.8537 26.3374 26.5272 26.4706 25.9912L24.5297 25.5088ZM29.0002 17.75C28.4479 17.75 28.0002 18.1977 28.0002 18.75C28.0002 19.3023 28.4479 19.75 29.0002 19.75V17.75ZM29.0118 19.75C29.5641 19.75 30.0118 19.3023 30.0118 18.75C30.0118 18.1977 29.5641 17.75 29.0118 17.75V19.75ZM24.5668 14.5H33.4335V12.5H24.5668V14.5ZM36.1668 17.2333V29.8333H38.1668V17.2333H36.1668ZM21.8335 32.1667V17.2333H19.8335V32.1667H21.8335ZM33.4335 14.5C34.1034 14.5 34.5457 14.5008 34.8846 14.5285C35.2118 14.5552 35.3537 14.602 35.4388 14.6453L36.3468 12.8633C35.9328 12.6524 35.4984 12.572 35.0475 12.5351C34.6082 12.4992 34.0704 12.5 33.4335 12.5V14.5ZM38.1668 17.2333C38.1668 16.5964 38.1676 16.0586 38.1317 15.6194C38.0949 15.1684 38.0145 14.7341 37.8035 14.32L36.0215 15.228C36.0649 15.3131 36.1116 15.455 36.1384 15.7822C36.1661 16.1212 36.1668 16.5634 36.1668 17.2333H38.1668ZM35.4388 14.6453C35.6897 14.7732 35.8937 14.9771 36.0215 15.228L37.8035 14.32C37.4839 13.6928 36.974 13.1829 36.3468 12.8633L35.4388 14.6453ZM24.5668 12.5C23.9299 12.5 23.3921 12.4992 22.9529 12.5351C22.5019 12.572 22.0676 12.6524 21.6535 12.8633L22.5615 14.6453C22.6466 14.602 22.7885 14.5552 23.1157 14.5285C23.4547 14.5008 23.8969 14.5 24.5668 14.5V12.5ZM21.8335 17.2333C21.8335 16.5634 21.8343 16.1212 21.862 15.7822C21.8887 15.455 21.9355 15.3131 21.9788 15.228L20.1968 14.32C19.9858 14.7341 19.9054 15.1684 19.8686 15.6194C19.8327 16.0586 19.8335 16.5964 19.8335 17.2333H21.8335ZM21.6535 12.8633C21.0263 13.1829 20.5164 13.6928 20.1968 14.32L21.9788 15.228C22.1067 14.9771 22.3106 14.7732 22.5615 14.6453L21.6535 12.8633ZM23.1668 30.8333H37.1668V28.8333H23.1668V30.8333ZM37.1668 33.5H23.1668V35.5H37.1668V33.5ZM23.1668 33.5C22.4304 33.5 21.8335 32.903 21.8335 32.1667H19.8335C19.8335 34.0076 21.3259 35.5 23.1668 35.5V33.5ZM23.1668 28.8333C21.3259 28.8333 19.8335 30.3257 19.8335 32.1667H21.8335C21.8335 31.4303 22.4304 30.8333 23.1668 30.8333V28.8333ZM35.0002 29.8333V34.5H37.0002V29.8333H35.0002ZM29.1668 18.75C29.1668 18.842 29.0922 18.9167 29.0002 18.9167V20.9167C30.1968 20.9167 31.1668 19.9466 31.1668 18.75H29.1668ZM29.0002 18.9167C28.9081 18.9167 28.8335 18.842 28.8335 18.75H26.8335C26.8335 19.9466 27.8035 20.9167 29.0002 20.9167V18.9167ZM28.8335 18.75C28.8335 18.658 28.9081 18.5833 29.0002 18.5833V16.5833C27.8035 16.5833 26.8335 17.5534 26.8335 18.75H28.8335ZM29.0002 18.5833C29.0922 18.5833 29.1668 18.658 29.1668 18.75H31.1668C31.1668 17.5534 30.1968 16.5833 29.0002 16.5833V18.5833ZM29.0002 24.4167C30.392 24.4167 31.3368 25.2152 31.5297 25.9912L33.4706 25.5088C33.0017 23.6222 31.064 22.4167 29.0002 22.4167V24.4167ZM26.4706 25.9912C26.6635 25.2152 27.6083 24.4167 29.0002 24.4167V22.4167C26.9363 22.4167 24.9986 23.6222 24.5297 25.5088L26.4706 25.9912ZM29.0002 19.75H29.0118V17.75H29.0002V19.75Z" fill="white"/>
</svg>
