<svg width="48" height="69" viewBox="0 0 48 69" fill="none" xmlns="http://www.w3.org/2000/svg">
<circle cx="24" cy="24" r="24" fill="#407FC5"/>
<path d="M4.9 64H6.268V60.352H9.028V59.236H6.268V56.776H9.808V55.66H4.9V64ZM11.0758 64H12.4438V57.388H11.0758V64ZM11.7718 56.512C12.2518 56.512 12.6358 56.128 12.6358 55.636C12.6358 55.144 12.2518 54.76 11.7718 54.76C11.2798 54.76 10.8958 55.144 10.8958 55.636C10.8958 56.128 11.2798 56.512 11.7718 56.512ZM14.2398 64H15.6078V55.12H14.2398V64ZM20.1879 58.432C21.2079 58.432 22.0119 59.08 22.0359 60.1H18.3759C18.5199 59.056 19.2639 58.432 20.1879 58.432ZM23.2839 62.032H21.8079C21.5559 62.548 21.0879 62.956 20.2479 62.956C19.2399 62.956 18.4599 62.296 18.3639 61.204H23.4159C23.4519 60.976 23.4639 60.76 23.4639 60.532C23.4639 58.588 22.1319 57.28 20.2479 57.28C18.2919 57.28 16.9479 58.612 16.9479 60.688C16.9479 62.764 18.3519 64.108 20.2479 64.108C21.8679 64.108 22.9119 63.184 23.2839 62.032ZM30.6513 55.66H27.9273V64H30.6513C33.3273 64 35.0793 62.428 35.0793 59.86C35.0793 57.28 33.3273 55.66 30.6513 55.66ZM29.2953 62.884V56.776H30.6513C32.6193 56.776 33.6753 57.952 33.6753 59.86C33.6753 61.756 32.6193 62.884 30.6513 62.884H29.2953ZM36.4352 64H37.8032V57.388H36.4352V64ZM37.1312 56.512C37.6112 56.512 37.9952 56.128 37.9952 55.636C37.9952 55.144 37.6112 54.76 37.1312 54.76C36.6392 54.76 36.2552 55.144 36.2552 55.636C36.2552 56.128 36.6392 56.512 37.1312 56.512ZM40.9672 60.52C40.9672 59.116 41.5912 58.696 42.5992 58.696H42.9472V57.28C42.0112 57.28 41.3512 57.688 40.9672 58.348V57.388H39.5992V64H40.9672V60.52ZM44.2047 64H45.5727V57.388H44.2047V64ZM44.9007 56.512C45.3807 56.512 45.7647 56.128 45.7647 55.636C45.7647 55.144 45.3807 54.76 44.9007 54.76C44.4087 54.76 44.0247 55.144 44.0247 55.636C44.0247 56.128 44.4087 56.512 44.9007 56.512Z" fill="#407FC5"/>
<path d="M20 27H28" stroke="white" stroke-width="2" stroke-linecap="round" stroke-linejoin="round"/>
<path d="M20 23H28" stroke="white" stroke-width="2" stroke-linecap="round" stroke-linejoin="round"/>
<path d="M28.0002 13H33C33.2652 13 33.5196 13.1054 33.7071 13.2929C33.8946 13.4804 34 13.7348 34 14V35C34 35.2652 33.8946 35.5196 33.7071 35.7071C33.5196 35.8946 33.2652 36 33 36H15C14.7348 36 14.4804 35.8946 14.2929 35.7071C14.1054 35.5196 14 35.2652 14 35V14C14 13.7348 14.1054 13.4804 14.2929 13.2929C14.4804 13.1054 14.7348 13 15 13H19.9997" stroke="white" stroke-width="2" stroke-linecap="round" stroke-linejoin="round"/>
<path d="M19 17V16C19 14.6739 19.5268 13.4021 20.4645 12.4645C21.4021 11.5268 22.6739 11 24 11C25.3261 11 26.5979 11.5268 27.5355 12.4645C28.4732 13.4021 29 14.6739 29 16V17H19Z" stroke="white" stroke-width="2" stroke-linecap="round" stroke-linejoin="round"/>
</svg>
