<svg width="63" height="80" viewBox="0 0 63 80" fill="none" xmlns="http://www.w3.org/2000/svg">
<circle cx="31" cy="24" r="24" fill="#407FC5"/>
<path d="M4.59723 56.13C4.59723 56.82 4.19723 57.31 3.30723 57.31H2.04723V54.98H3.30723C4.19723 54.98 4.59723 55.43 4.59723 56.13ZM0.907227 54.05V61H2.04723V58.22H2.91723L4.51723 61H5.87723L4.15723 58.12C5.32723 57.83 5.76723 56.95 5.76723 56.13C5.76723 55 4.95723 54.05 3.30723 54.05H0.907227ZM7.22559 61H8.36559V55.49H7.22559V61ZM7.80559 54.76C8.20559 54.76 8.52559 54.44 8.52559 54.03C8.52559 53.62 8.20559 53.3 7.80559 53.3C7.39559 53.3 7.07559 53.62 7.07559 54.03C7.07559 54.44 7.39559 54.76 7.80559 54.76ZM10.9323 61H12.1323L13.2423 56.93L14.3523 61H15.5523L17.2623 55.49H16.1423L15.0023 59.9L13.8823 55.49H12.6923L11.5223 59.92L10.3723 55.49H9.2123L10.9323 61ZM17.7343 58.22C17.7343 59.92 18.8843 61.09 20.3143 61.09C21.2343 61.09 21.8943 60.65 22.2443 60.18V61H23.3943V55.49H22.2443V56.29C21.9043 55.84 21.2643 55.4 20.3343 55.4C18.8843 55.4 17.7343 56.52 17.7343 58.22ZM22.2443 58.24C22.2443 59.43 21.4343 60.1 20.5743 60.1C19.7243 60.1 18.9043 59.41 18.9043 58.22C18.9043 57.03 19.7243 56.39 20.5743 56.39C21.4343 56.39 22.2443 57.06 22.2443 58.24ZM27.0616 59.69L25.5116 55.49H24.2416L26.4116 60.91L25.2916 63.59H26.4716L29.8516 55.49H28.6716L27.0616 59.69ZM30.3319 58.22C30.3319 59.92 31.4819 61.09 32.9119 61.09C33.8319 61.09 34.4919 60.65 34.8419 60.18V61H35.9919V55.49H34.8419V56.29C34.5019 55.84 33.8619 55.4 32.9319 55.4C31.4819 55.4 30.3319 56.52 30.3319 58.22ZM34.8419 58.24C34.8419 59.43 34.0319 60.1 33.1719 60.1C32.3219 60.1 31.5019 59.41 31.5019 58.22C31.5019 57.03 32.3219 56.39 33.1719 56.39C34.0319 56.39 34.8419 57.06 34.8419 58.24ZM37.6693 59.47C37.6693 60.59 38.2793 61 39.2593 61H40.1593V60.05H39.4593C38.9793 60.05 38.8193 59.88 38.8193 59.47V56.42H40.1593V55.49H38.8193V54.12H37.6693V55.49H37.0193V56.42H37.6693V59.47ZM46.9776 53.96C45.0176 53.96 43.4276 55.43 43.4276 57.51C43.4276 59.6 45.0176 61.06 46.9776 61.06C48.8476 61.06 50.2076 59.69 50.4176 58.08V57.19H46.5876V58.1H49.1976C49.0276 59.27 48.2376 60.03 46.9776 60.03C45.5976 60.03 44.5976 59.04 44.5976 57.51C44.5976 55.98 45.5976 55 46.9776 55C47.8076 55 48.4676 55.35 48.8376 56.05H50.2076C49.6776 54.69 48.4276 53.96 46.9776 53.96ZM51.162 58.22C51.162 59.92 52.312 61.09 53.742 61.09C54.662 61.09 55.322 60.65 55.672 60.18V61H56.822V55.49H55.672V56.29C55.332 55.84 54.692 55.4 53.762 55.4C52.312 55.4 51.162 56.52 51.162 58.22ZM55.672 58.24C55.672 59.43 54.862 60.1 54.002 60.1C53.152 60.1 52.332 59.41 52.332 58.22C52.332 57.03 53.152 56.39 54.002 56.39C54.862 56.39 55.672 57.06 55.672 58.24ZM58.8993 54.76C59.2993 54.76 59.6193 54.44 59.6193 54.03C59.6193 53.62 59.2993 53.3 58.8993 53.3C58.4893 53.3 58.1693 53.62 58.1693 54.03C58.1693 54.44 58.4893 54.76 58.8993 54.76ZM58.3193 55.49V62.08C58.3193 62.49 58.1593 62.66 57.6793 62.66H57.2893V63.62H57.8793C58.8593 63.62 59.4593 63.2 59.4593 62.08V55.49H58.3193ZM60.9561 61H62.0961V55.49H60.9561V61ZM61.5361 54.76C61.9361 54.76 62.2561 54.44 62.2561 54.03C62.2561 53.62 61.9361 53.3 61.5361 53.3C61.1261 53.3 60.8061 53.62 60.8061 54.03C60.8061 54.44 61.1261 54.76 61.5361 54.76ZM17.1514 74.01C17.1514 74.68 16.6814 75.07 15.9114 75.07H14.3714V72.9H15.8714C16.6314 72.9 17.1514 73.32 17.1514 74.01ZM16.9714 70.98C16.9714 71.62 16.5214 71.97 15.7814 71.97H14.3714V69.98H15.7814C16.5214 69.98 16.9714 70.35 16.9714 70.98ZM18.2914 74.13C18.2914 73.3 17.6914 72.56 16.9514 72.43C17.6214 72.19 18.1314 71.68 18.1314 70.84C18.1314 69.86 17.3514 69.05 15.8814 69.05H13.2314V76H16.0114C17.4314 76 18.2914 75.19 18.2914 74.13ZM21.8503 71.36C22.7003 71.36 23.3703 71.9 23.3903 72.75H20.3403C20.4603 71.88 21.0803 71.36 21.8503 71.36ZM24.4303 74.36H23.2003C22.9903 74.79 22.6003 75.13 21.9003 75.13C21.0603 75.13 20.4103 74.58 20.3303 73.67H24.5403C24.5703 73.48 24.5803 73.3 24.5803 73.11C24.5803 71.49 23.4703 70.4 21.9003 70.4C20.2703 70.4 19.1503 71.51 19.1503 73.24C19.1503 74.97 20.3203 76.09 21.9003 76.09C23.2503 76.09 24.1203 75.32 24.4303 74.36ZM26.8421 73.1C26.8421 71.93 27.3621 71.58 28.2021 71.58H28.4921V70.4C27.7121 70.4 27.1621 70.74 26.8421 71.29V70.49H25.7021V76H26.8421V73.1ZM29.54 76H30.68V73.63L32.72 76H34.26L31.72 73.25L34.26 70.49H32.68L30.68 72.9V68.6H29.54V76ZM34.6971 73.22C34.6971 74.92 35.8471 76.09 37.2771 76.09C38.1971 76.09 38.8571 75.65 39.2071 75.18V76H40.3571V70.49H39.2071V71.29C38.8671 70.84 38.2271 70.4 37.2971 70.4C35.8471 70.4 34.6971 71.52 34.6971 73.22ZM39.2071 73.24C39.2071 74.43 38.3971 75.1 37.5371 75.1C36.6871 75.1 35.8671 74.41 35.8671 73.22C35.8671 72.03 36.6871 71.39 37.5371 71.39C38.3971 71.39 39.2071 72.06 39.2071 73.24ZM41.8545 76H42.9945V68.6H41.8545V76ZM44.1112 73.22C44.1112 74.92 45.2612 76.09 46.6912 76.09C47.6112 76.09 48.2712 75.65 48.6212 75.18V76H49.7712V70.49H48.6212V71.29C48.2812 70.84 47.6412 70.4 46.7112 70.4C45.2612 70.4 44.1112 71.52 44.1112 73.22ZM48.6212 73.24C48.6212 74.43 47.8112 75.1 46.9512 75.1C46.1012 75.1 45.2812 74.41 45.2812 73.22C45.2812 72.03 46.1012 71.39 46.9512 71.39C47.8112 71.39 48.6212 72.06 48.6212 73.24Z" fill="#407FC5"/>
<path d="M27 25C26.4477 25 26 25.4477 26 26C26 26.5523 26.4477 27 27 27V25ZM33 27C33.5523 27 34 26.5523 34 26C34 25.4477 33.5523 25 33 25V27ZM29 21C28.4477 21 28 21.4477 28 22C28 22.5523 28.4477 23 29 23V21ZM31 23C31.5523 23 32 22.5523 32 22C32 21.4477 31.5523 21 31 21V23ZM27 29C26.4477 29 26 29.4477 26 30C26 30.5523 26.4477 31 27 31V29ZM33 31C33.5523 31 34 30.5523 34 30C34 29.4477 33.5523 29 33 29V31ZM37 26V25C36.4477 25 36 25.4477 36 26H37ZM41 26H42C42 25.4477 41.5523 25 41 25V26ZM36 33C35.4477 33 35 33.4477 35 34C35 34.5523 35.4477 35 36 35V33ZM38.5 35C39.0523 35 39.5 34.5523 39.5 34C39.5 33.4477 39.0523 33 38.5 33V35ZM34.6062 17.3679L35.1023 18.2361L34.6062 17.3679ZM34.2938 17.5464L34.79 18.4146L34.79 18.4146L34.2938 17.5464ZM32.7062 17.5464L33.2023 16.6781L33.2023 16.6781L32.7062 17.5464ZM30.7938 16.4536L30.2977 17.3218V17.3218L30.7938 16.4536ZM29.2062 16.4536L29.7023 17.3218V17.3218L29.2062 16.4536ZM27.2938 17.5464L26.7977 16.6781L26.7977 16.6781L27.2938 17.5464ZM25.7062 17.5464L25.21 18.4146L25.21 18.4146L25.7062 17.5464ZM25.3938 17.3679L25.89 16.4996L25.89 16.4996L25.3938 17.3679ZM37 35C37.5523 35 38 34.5523 38 34C38 33.4477 37.5523 33 37 33V35ZM36 27C36 27.5523 36.4477 28 37 28C37.5523 28 38 27.5523 38 27H36ZM23.327 32.362L24.218 31.908L24.218 31.908L23.327 32.362ZM24.638 33.673L24.184 34.564H24.184L24.638 33.673ZM23.8924 16.729L23.7847 15.7348L23.7847 15.7348L23.8924 16.729ZM23.1902 17.1365L22.3804 16.5498L22.3804 16.5498L23.1902 17.1365ZM26.7062 17.8267L26.9123 18.8053H26.9123L26.7062 17.8267ZM26.2938 17.8267L26.0877 18.8053H26.0877L26.2938 17.8267ZM30.2062 16.1732L30 17.1517L30 17.1517L30.2062 16.1732ZM29.7938 16.1732L30 17.1517L30 17.1517L29.7938 16.1732ZM33.7062 17.8267L33.9123 18.8053L33.9123 18.8053L33.7062 17.8267ZM33.2938 17.8267L33.0877 18.8053L33.0877 18.8053L33.2938 17.8267ZM36.1076 16.729L36.2153 15.7348V15.7348L36.1076 16.729ZM36.8098 17.1365L36 17.7232L36 17.7232L36.8098 17.1365ZM27 27H33V25H27V27ZM29 23H31V21H29V23ZM27 31H33V29H27V31ZM37 27H41V25H37V27ZM40 26V32H42V26H40ZM38 32V26H36V32H38ZM39 33C38.4477 33 38 32.5523 38 32H36C36 33.6568 37.3431 35 39 35V33ZM40 32C40 32.5523 39.5523 33 39 33V35C40.6569 35 42 33.6568 42 32H40ZM36 35H38.5V33H36V35ZM34.11 16.4996L33.7977 16.6781L34.79 18.4146L35.1023 18.2361L34.11 16.4996ZM33.2023 16.6781L31.29 15.5854L30.2977 17.3218L32.21 18.4146L33.2023 16.6781ZM28.71 15.5854L26.7977 16.6781L27.79 18.4146L29.7023 17.3218L28.71 15.5854ZM26.2023 16.6781L25.89 16.4996L24.8977 18.2361L25.21 18.4146L26.2023 16.6781ZM22 18.7571V29.2H24V18.7571H22ZM27.8 35H37V33H27.8V35ZM38 27V18.7571H36V27H38ZM22 29.2C22 30.0236 21.9992 30.7014 22.0442 31.2518C22.0901 31.8139 22.1887 32.3306 22.436 32.8159L24.218 31.908C24.1383 31.7516 24.0734 31.5274 24.0376 31.0889C24.0008 30.6389 24 30.0566 24 29.2H22ZM27.8 33C26.9434 33 26.3611 32.9992 25.911 32.9624C25.4726 32.9266 25.2484 32.8617 25.092 32.782L24.184 34.564C24.6694 34.8113 25.1861 34.9099 25.7482 34.9558C26.2986 35.0008 26.9764 35 27.8 35V33ZM22.436 32.8159C22.8195 33.5686 23.4314 34.1805 24.184 34.564L25.092 32.782C24.7157 32.5902 24.4097 32.2843 24.218 31.908L22.436 32.8159ZM25.89 16.4996C25.514 16.2848 25.1724 16.0884 24.8839 15.957C24.5999 15.8275 24.2189 15.6878 23.7847 15.7348L24 17.7232C23.8882 17.7353 23.8648 17.6904 24.0544 17.7768C24.2396 17.8612 24.4875 18.0017 24.8977 18.2361L25.89 16.4996ZM24 18.7571C24 18.2847 24.001 17.9997 24.0196 17.797C24.0386 17.5895 24.066 17.6321 24 17.7232L22.3804 16.5498C22.1242 16.9033 22.0565 17.3035 22.028 17.6143C21.999 17.93 22 18.3241 22 18.7571H24ZM23.7847 15.7348C23.2225 15.7957 22.7122 16.0917 22.3804 16.5498L24 17.7232L24 17.7232L23.7847 15.7348ZM26.7977 16.6781C26.6431 16.7664 26.564 16.8112 26.5049 16.8405C26.4561 16.8647 26.4648 16.8556 26.5 16.8482L26.9123 18.8053C27.2561 18.7328 27.5586 18.5468 27.79 18.4146L26.7977 16.6781ZM25.21 18.4146C25.4414 18.5468 25.7439 18.7328 26.0877 18.8053L26.5 16.8482C26.5352 16.8556 26.5439 16.8647 26.4951 16.8405C26.436 16.8112 26.3569 16.7664 26.2023 16.6781L25.21 18.4146ZM26.5 16.8482H26.5L26.0877 18.8053C26.3596 18.8626 26.6404 18.8626 26.9123 18.8053L26.5 16.8482ZM31.29 15.5854C31.0586 15.4531 30.7561 15.2671 30.4123 15.1947L30 17.1517C29.9648 17.1443 29.9561 17.1353 30.0049 17.1595C30.064 17.1888 30.1431 17.2335 30.2977 17.3218L31.29 15.5854ZM29.7023 17.3218C29.8569 17.2335 29.936 17.1888 29.9951 17.1595C30.0439 17.1353 30.0352 17.1443 30 17.1517L29.5877 15.1947C29.2439 15.2671 28.9414 15.4531 28.71 15.5854L29.7023 17.3218ZM30.4123 15.1947C30.1404 15.1374 29.8596 15.1374 29.5877 15.1947L30 17.1517H30L30.4123 15.1947ZM33.7977 16.6781C33.6431 16.7664 33.564 16.8112 33.5049 16.8405C33.4561 16.8647 33.4648 16.8556 33.5 16.8482L33.9123 18.8053C34.2561 18.7328 34.5586 18.5468 34.79 18.4146L33.7977 16.6781ZM32.21 18.4146C32.4414 18.5468 32.7439 18.7328 33.0877 18.8053L33.5 16.8482C33.5352 16.8556 33.5439 16.8647 33.4951 16.8405C33.436 16.8112 33.3569 16.7664 33.2023 16.6781L32.21 18.4146ZM33.5 16.8482H33.5L33.0877 18.8053C33.3596 18.8626 33.6404 18.8626 33.9123 18.8053L33.5 16.8482ZM35.1023 18.2361C35.5125 18.0017 35.7604 17.8612 35.9456 17.7768C36.1352 17.6904 36.1118 17.7353 36 17.7232L36.2153 15.7348C35.7811 15.6878 35.4001 15.8275 35.1161 15.957C34.8276 16.0884 34.486 16.2848 34.11 16.4996L35.1023 18.2361ZM38 18.7571C38 18.3241 38.001 17.93 37.972 17.6143C37.9435 17.3035 37.8758 16.9033 37.6196 16.5498L36 17.7232C35.934 17.6321 35.9614 17.5895 35.9804 17.797C35.999 17.9997 36 18.2847 36 18.7571H38ZM36 17.7232L36 17.7232L37.6196 16.5498C37.2878 16.0917 36.7775 15.7957 36.2153 15.7348L36 17.7232Z" fill="white"/>
</svg>
