<svg width="149" height="162" viewBox="0 0 149 162" fill="none" xmlns="http://www.w3.org/2000/svg">
<path d="M74.5 42.3333H74.5529M74.5 58.2083V84.6667M122.125 63.5C122.125 89.8026 100.803 111.125 74.5 111.125C48.1974 111.125 26.875 89.8026 26.875 63.5C26.875 37.1974 48.1974 15.875 74.5 15.875C100.803 15.875 122.125 37.1974 122.125 63.5Z" stroke="#407FC5" stroke-width="7" stroke-linecap="round" stroke-linejoin="round"/>
<path d="M5.436 148.49H1.35V161H5.436C9.45 161 12.078 158.642 12.078 154.79C12.078 150.92 9.45 148.49 5.436 148.49ZM3.402 159.326V150.164H5.436C8.388 150.164 9.972 151.928 9.972 154.79C9.972 157.634 8.388 159.326 5.436 159.326H3.402ZM13.4277 155.996C13.4277 159.056 15.4977 161.162 18.0717 161.162C19.7277 161.162 20.9157 160.37 21.5457 159.524V161H23.6157V151.082H21.5457V152.522C20.9337 151.712 19.7817 150.92 18.1077 150.92C15.4977 150.92 13.4277 152.936 13.4277 155.996ZM21.5457 156.032C21.5457 158.174 20.0877 159.38 18.5397 159.38C17.0097 159.38 15.5337 158.138 15.5337 155.996C15.5337 153.854 17.0097 152.702 18.5397 152.702C20.0877 152.702 21.5457 153.908 21.5457 156.032ZM26.6349 158.246C26.6349 160.262 27.7329 161 29.4969 161H31.1169V159.29H29.8569C28.9929 159.29 28.7049 158.984 28.7049 158.246V152.756H31.1169V151.082H28.7049V148.616H26.6349V151.082H25.4649V152.756H26.6349V158.246ZM32.3242 155.996C32.3242 159.056 34.3942 161.162 36.9682 161.162C38.6242 161.162 39.8122 160.37 40.4422 159.524V161H42.5122V151.082H40.4422V152.522C39.8302 151.712 38.6782 150.92 37.0042 150.92C34.3942 150.92 32.3242 152.936 32.3242 155.996ZM40.4422 156.032C40.4422 158.174 38.9842 159.38 37.4362 159.38C35.9062 159.38 34.4302 158.138 34.4302 155.996C34.4302 153.854 35.9062 152.702 37.4362 152.702C38.9842 152.702 40.4422 153.908 40.4422 156.032ZM49.2352 150.164H52.5832V161H54.6352V150.164H57.9652V148.49H49.2352V150.164ZM60.0434 161H62.0954V151.082H60.0434V161ZM61.0874 149.768C61.8074 149.768 62.3834 149.192 62.3834 148.454C62.3834 147.716 61.8074 147.14 61.0874 147.14C60.3494 147.14 59.7734 147.716 59.7734 148.454C59.7734 149.192 60.3494 149.768 61.0874 149.768ZM64.1055 155.996C64.1055 159.056 66.1755 161.162 68.7855 161.162C70.4055 161.162 71.5935 160.406 72.2235 159.506V161H74.2935V147.68H72.2235V152.468C71.4675 151.532 70.0995 150.92 68.8035 150.92C66.1755 150.92 64.1055 152.936 64.1055 155.996ZM72.2235 156.032C72.2235 158.174 70.7655 159.38 69.2175 159.38C67.6875 159.38 66.2115 158.138 66.2115 155.996C66.2115 153.854 67.6875 152.702 69.2175 152.702C70.7655 152.702 72.2235 153.908 72.2235 156.032ZM76.3047 155.996C76.3047 159.056 78.3747 161.162 80.9487 161.162C82.6047 161.162 83.7927 160.37 84.4227 159.524V161H86.4927V151.082H84.4227V152.522C83.8107 151.712 82.6587 150.92 80.9847 150.92C78.3747 150.92 76.3047 152.936 76.3047 155.996ZM84.4227 156.032C84.4227 158.174 82.9647 159.38 81.4167 159.38C79.8867 159.38 78.4107 158.138 78.4107 155.996C78.4107 153.854 79.8867 152.702 81.4167 152.702C82.9647 152.702 84.4227 153.908 84.4227 156.032ZM89.1879 161H91.2399V156.734L94.9119 161H97.6839L93.1119 156.05L97.6839 151.082H94.8399L91.2399 155.42V147.68H89.1879V161ZM112.272 161H114.432L109.95 148.472H107.574L103.092 161H105.234L106.134 158.444H111.372L112.272 161ZM110.796 156.77H106.71L108.762 150.956L110.796 156.77ZM115.697 155.996C115.697 159.056 117.767 161.162 120.377 161.162C121.997 161.162 123.185 160.406 123.815 159.506V161H125.885V147.68H123.815V152.468C123.059 151.532 121.691 150.92 120.395 150.92C117.767 150.92 115.697 152.936 115.697 155.996ZM123.815 156.032C123.815 158.174 122.357 159.38 120.809 159.38C119.279 159.38 117.803 158.138 117.803 155.996C117.803 153.854 119.279 152.702 120.809 152.702C122.357 152.702 123.815 153.908 123.815 156.032ZM127.896 155.996C127.896 159.056 129.966 161.162 132.54 161.162C134.196 161.162 135.384 160.37 136.014 159.524V161H138.084V151.082H136.014V152.522C135.402 151.712 134.25 150.92 132.576 150.92C129.966 150.92 127.896 152.936 127.896 155.996ZM136.014 156.032C136.014 158.174 134.556 159.38 133.008 159.38C131.478 159.38 130.002 158.138 130.002 155.996C130.002 153.854 131.478 152.702 133.008 152.702C134.556 152.702 136.014 153.908 136.014 156.032Z" fill="#407FC5"/>
<path d="M28.116 140H31.194V127.364H28.116V140ZM40.3546 140H43.4146V134.132C43.4146 131.432 41.8666 129.848 39.5446 129.848C38.1946 129.848 37.1146 130.442 36.5026 131.288V129.956H33.4246V140H36.5026V134.546C36.5026 133.178 37.2586 132.422 38.4286 132.422C39.5986 132.422 40.3546 133.178 40.3546 134.546V140ZM45.8595 140H48.9375V132.512H50.5935V129.956H48.9375V129.866C48.9375 128.804 49.3515 128.444 50.5395 128.516V125.906C47.4795 125.744 45.8595 127.04 45.8595 129.668V129.956H44.7435V132.512H45.8595V140ZM61.8678 134.978C61.8678 131.792 59.5998 129.812 56.6478 129.812C53.7138 129.812 51.4278 131.792 51.4278 134.978C51.4278 138.164 53.6598 140.144 56.6118 140.144C59.5638 140.144 61.8678 138.164 61.8678 134.978ZM54.5598 134.978C54.5598 133.268 55.5318 132.476 56.6478 132.476C57.7278 132.476 58.7358 133.268 58.7358 134.978C58.7358 136.67 57.7098 137.48 56.6118 137.48C55.4958 137.48 54.5598 136.67 54.5598 134.978ZM66.5788 135.338C66.5788 133.61 67.4248 133.106 68.8828 133.106H69.7288V129.848C68.3788 129.848 67.2808 130.568 66.5788 131.63V129.956H63.5008V140H66.5788V135.338ZM85.042 140H88.102V134.132C88.102 131.432 86.5 129.848 84.016 129.848C82.558 129.848 81.298 130.658 80.632 131.72C79.948 130.514 78.724 129.848 77.212 129.848C75.898 129.848 74.872 130.406 74.278 131.216V129.956H71.2V140H74.278V134.546C74.278 133.232 75.034 132.512 76.204 132.512C77.374 132.512 78.13 133.232 78.13 134.546V140H81.19V134.546C81.19 133.232 81.946 132.512 83.116 132.512C84.286 132.512 85.042 133.232 85.042 134.546V140ZM89.6427 134.96C89.6427 138.128 91.6047 140.144 94.0527 140.144C95.5467 140.144 96.6087 139.46 97.1667 138.578V140H100.245V129.956H97.1667V131.378C96.6267 130.496 95.5647 129.812 94.0707 129.812C91.6047 129.812 89.6427 131.792 89.6427 134.96ZM97.1667 134.978C97.1667 136.58 96.1407 137.462 94.9707 137.462C93.8187 137.462 92.7747 136.562 92.7747 134.96C92.7747 133.358 93.8187 132.494 94.9707 132.494C96.1407 132.494 97.1667 133.376 97.1667 134.978ZM110.625 137.084C110.571 133.34 105.135 134.474 105.135 132.872C105.135 132.386 105.531 132.098 106.251 132.098C107.115 132.098 107.637 132.548 107.727 133.232H110.571C110.373 131.252 108.933 129.812 106.341 129.812C103.713 129.812 102.255 131.216 102.255 132.926C102.255 136.616 107.727 135.446 107.727 137.066C107.727 137.516 107.313 137.876 106.521 137.876C105.675 137.876 105.045 137.408 104.973 136.706H101.931C102.075 138.65 103.875 140.144 106.557 140.144C109.077 140.144 110.625 138.83 110.625 137.084ZM112.509 140H115.587V129.956H112.509V140ZM114.057 128.912C115.137 128.912 115.875 128.174 115.875 127.256C115.875 126.32 115.137 125.582 114.057 125.582C112.959 125.582 112.221 126.32 112.221 127.256C112.221 128.174 112.959 128.912 114.057 128.912Z" fill="#407FC5"/>
</svg>
