<svg width="17" height="18" viewBox="0 0 17 18" fill="none" xmlns="http://www.w3.org/2000/svg">
<path d="M8.05056 2.36111C10.2016 2.36111 10.4563 2.37054 11.3022 2.40828C12.0884 2.44287 12.513 2.57495 12.796 2.68502C13.1702 2.82968 13.4407 3.00578 13.7206 3.28566C14.0036 3.56869 14.1765 3.836 14.3212 4.21022C14.4313 4.49325 14.5633 4.92094 14.5979 5.70398C14.6357 6.55306 14.6451 6.80779 14.6451 8.95565C14.6451 11.1067 14.6357 11.3614 14.5979 12.2073C14.5633 12.9935 14.4313 13.4181 14.3212 13.7011C14.1765 14.0753 14.0004 14.3458 13.7206 14.6256C13.4375 14.9087 13.1702 15.0816 12.796 15.2263C12.513 15.3364 12.0853 15.4684 11.3022 15.503C10.4532 15.5408 10.1984 15.5502 8.05056 15.5502C5.89955 15.5502 5.64483 15.5408 4.79889 15.503C4.0127 15.4684 3.58816 15.3364 3.30513 15.2263C2.93091 15.0816 2.66046 14.9055 2.38058 14.6256C2.09755 14.3426 1.92459 14.0753 1.77993 13.7011C1.66986 13.4181 1.53778 12.9904 1.50319 12.2073C1.46545 11.3582 1.45602 11.1035 1.45602 8.95565C1.45602 6.80464 1.46545 6.54992 1.50319 5.70398C1.53778 4.91779 1.66986 4.49325 1.77993 4.21022C1.92459 3.836 2.10069 3.56555 2.38058 3.28566C2.6636 3.00264 2.93091 2.82968 3.30513 2.68502C3.58816 2.57495 4.01585 2.44287 4.79889 2.40828C5.64483 2.37054 5.89955 2.36111 8.05056 2.36111ZM8.05056 0.911377C5.86496 0.911377 5.59137 0.920811 4.73285 0.958548C3.87748 0.996285 3.28941 1.13465 2.77996 1.33277C2.2485 1.54033 1.7988 1.81392 1.35224 2.26362C0.902544 2.71017 0.62895 3.15987 0.421397 3.68819C0.223277 4.20079 0.0849083 4.78571 0.0471713 5.64108C0.00943426 6.50275 0 6.77634 0 8.96194C0 11.1475 0.00943426 11.4211 0.0471713 12.2797C0.0849083 13.135 0.223277 13.7231 0.421397 14.2325C0.62895 14.764 0.902544 15.2137 1.35224 15.6603C1.7988 16.1068 2.2485 16.3836 2.77682 16.588C3.28941 16.7861 3.87433 16.9245 4.72971 16.9622C5.58822 16.9999 5.86182 17.0094 8.04742 17.0094C10.233 17.0094 10.5066 16.9999 11.3651 16.9622C12.2205 16.9245 12.8086 16.7861 13.318 16.588C13.8463 16.3836 14.296 16.1068 14.7426 15.6603C15.1892 15.2137 15.4659 14.764 15.6703 14.2357C15.8684 13.7231 16.0068 13.1382 16.0445 12.2828C16.0823 11.4243 16.0917 11.1507 16.0917 8.96509C16.0917 6.77948 16.0823 6.50589 16.0445 5.64737C16.0068 4.792 15.8684 4.20393 15.6703 3.69448C15.4722 3.15987 15.1986 2.71017 14.7489 2.26362C14.3023 1.81707 13.8526 1.54033 13.3243 1.33592C12.8117 1.1378 12.2268 0.99943 11.3714 0.961693C10.5098 0.920811 10.2362 0.911377 8.05056 0.911377Z" fill="#407FC5"/>
<path d="M8.05063 4.82666C5.76754 4.82666 3.91528 6.67892 3.91528 8.96201C3.91528 11.2451 5.76754 13.0974 8.05063 13.0974C10.3337 13.0974 12.186 11.2451 12.186 8.96201C12.186 6.67892 10.3337 4.82666 8.05063 4.82666ZM8.05063 11.6445C6.56945 11.6445 5.36816 10.4432 5.36816 8.96201C5.36816 7.48083 6.56945 6.27954 8.05063 6.27954C9.53181 6.27954 10.7331 7.48083 10.7331 8.96201C10.7331 10.4432 9.53181 11.6445 8.05063 11.6445Z" fill="#407FC5"/>
<path d="M13.3149 4.66295C13.3149 5.19756 12.8809 5.62839 12.3495 5.62839C11.8149 5.62839 11.384 5.19441 11.384 4.66295C11.384 4.12834 11.818 3.69751 12.3495 3.69751C12.8809 3.69751 13.3149 4.13149 13.3149 4.66295Z" fill="#407FC5"/>
</svg>
