<svg width="58" height="80" viewBox="0 0 58 80" fill="none" xmlns="http://www.w3.org/2000/svg">
<circle cx="29" cy="24" r="24" fill="#407FC5"/>
<path d="M11.9898 56.13C11.9898 56.82 11.5898 57.31 10.6998 57.31H9.4398V54.98H10.6998C11.5898 54.98 11.9898 55.43 11.9898 56.13ZM8.2998 54.05V61H9.4398V58.22H10.3098L11.9098 61H13.2698L11.5498 58.12C12.7198 57.83 13.1598 56.95 13.1598 56.13C13.1598 55 12.3498 54.05 10.6998 54.05H8.2998ZM14.6182 61H15.7582V55.49H14.6182V61ZM15.1982 54.76C15.5982 54.76 15.9182 54.44 15.9182 54.03C15.9182 53.62 15.5982 53.3 15.1982 53.3C14.7882 53.3 14.4682 53.62 14.4682 54.03C14.4682 54.44 14.7882 54.76 15.1982 54.76ZM18.3249 61H19.5249L20.6349 56.93L21.7449 61H22.9449L24.6549 55.49H23.5349L22.3949 59.9L21.2749 55.49H20.0849L18.9149 59.92L17.7649 55.49H16.6049L18.3249 61ZM25.1268 58.22C25.1268 59.92 26.2768 61.09 27.7068 61.09C28.6268 61.09 29.2868 60.65 29.6368 60.18V61H30.7868V55.49H29.6368V56.29C29.2968 55.84 28.6568 55.4 27.7268 55.4C26.2768 55.4 25.1268 56.52 25.1268 58.22ZM29.6368 58.24C29.6368 59.43 28.8268 60.1 27.9668 60.1C27.1168 60.1 26.2968 59.41 26.2968 58.22C26.2968 57.03 27.1168 56.39 27.9668 56.39C28.8268 56.39 29.6368 57.06 29.6368 58.24ZM34.4542 59.69L32.9042 55.49H31.6342L33.8042 60.91L32.6842 63.59H33.8642L37.2442 55.49H36.0642L34.4542 59.69ZM37.7245 58.22C37.7245 59.92 38.8745 61.09 40.3045 61.09C41.2245 61.09 41.8845 60.65 42.2345 60.18V61H43.3845V55.49H42.2345V56.29C41.8945 55.84 41.2545 55.4 40.3245 55.4C38.8745 55.4 37.7245 56.52 37.7245 58.22ZM42.2345 58.24C42.2345 59.43 41.4245 60.1 40.5645 60.1C39.7145 60.1 38.8945 59.41 38.8945 58.22C38.8945 57.03 39.7145 56.39 40.5645 56.39C41.4245 56.39 42.2345 57.06 42.2345 58.24ZM45.0618 59.47C45.0618 60.59 45.6718 61 46.6518 61H47.5518V60.05H46.8518C46.3718 60.05 46.2118 59.88 46.2118 59.47V56.42H47.5518V55.49H46.2118V54.12H45.0618V55.49H44.4118V56.42H45.0618V59.47ZM4.65422 76H6.14422L3.07422 72.53L6.09422 69.05H4.66422L1.96422 72.22V69.05H0.824219V76H1.96422V72.89L4.65422 76ZM9.47234 71.36C10.3223 71.36 10.9923 71.9 11.0123 72.75H7.96234C8.08234 71.88 8.70234 71.36 9.47234 71.36ZM12.0523 74.36H10.8223C10.6123 74.79 10.2223 75.13 9.52234 75.13C8.68234 75.13 8.03234 74.58 7.95234 73.67H12.1623C12.1923 73.48 12.2023 73.3 12.2023 73.11C12.2023 71.49 11.0923 70.4 9.52234 70.4C7.89234 70.4 6.77234 71.51 6.77234 73.24C6.77234 74.97 7.94234 76.09 9.52234 76.09C10.8723 76.09 11.7423 75.32 12.0523 74.36ZM12.9442 73.22C12.9442 74.92 14.0942 76.09 15.5442 76.09C16.4442 76.09 17.1042 75.67 17.4542 75.17V76H18.6042V68.6H17.4542V71.26C17.0342 70.74 16.2742 70.4 15.5542 70.4C14.0942 70.4 12.9442 71.52 12.9442 73.22ZM17.4542 73.24C17.4542 74.43 16.6442 75.1 15.7842 75.1C14.9342 75.1 14.1142 74.41 14.1142 73.22C14.1142 72.03 14.9342 71.39 15.7842 71.39C16.6442 71.39 17.4542 72.06 17.4542 73.24ZM25.0916 70.49H23.9516V73.56C23.9516 74.57 23.4016 75.09 22.5616 75.09C21.7316 75.09 21.1816 74.57 21.1816 73.56V70.49H20.0516V73.73C20.0516 75.27 21.0316 76.08 22.3216 76.08C22.9716 76.08 23.5916 75.81 23.9516 75.34V76H25.0916V70.49ZM26.2157 73.22C26.2157 74.92 27.3657 76.09 28.8157 76.09C29.7157 76.09 30.3757 75.67 30.7257 75.17V76H31.8757V68.6H30.7257V71.26C30.3057 70.74 29.5457 70.4 28.8257 70.4C27.3657 70.4 26.2157 71.52 26.2157 73.22ZM30.7257 73.24C30.7257 74.43 29.9157 75.1 29.0557 75.1C28.2057 75.1 27.3857 74.41 27.3857 73.22C27.3857 72.03 28.2057 71.39 29.0557 71.39C29.9157 71.39 30.7257 72.06 30.7257 73.24ZM38.363 70.49H37.223V73.56C37.223 74.57 36.673 75.09 35.833 75.09C35.003 75.09 34.453 74.57 34.453 73.56V70.49H33.323V73.73C33.323 75.27 34.303 76.08 35.593 76.08C36.243 76.08 36.863 75.81 37.223 75.34V76H38.363V70.49ZM39.8672 76H41.0072V73.63L43.0472 76H44.5872L42.0472 73.25L44.5872 70.49H43.0072L41.0072 72.9V68.6H39.8672V76ZM45.0243 73.22C45.0243 74.92 46.1743 76.09 47.6043 76.09C48.5243 76.09 49.1843 75.65 49.5343 75.18V76H50.6843V70.49H49.5343V71.29C49.1943 70.84 48.5543 70.4 47.6243 70.4C46.1743 70.4 45.0243 71.52 45.0243 73.22ZM49.5343 73.24C49.5343 74.43 48.7243 75.1 47.8643 75.1C47.0143 75.1 46.1943 74.41 46.1943 73.22C46.1943 72.03 47.0143 71.39 47.8643 71.39C48.7243 71.39 49.5343 72.06 49.5343 73.24ZM56.0916 76H57.2216V72.75C57.2216 71.21 56.2516 70.4 54.9616 70.4C54.3016 70.4 53.6916 70.67 53.3216 71.12V70.49H52.1816V76H53.3216V72.92C53.3216 71.91 53.8716 71.39 54.7116 71.39C55.5416 71.39 56.0916 71.91 56.0916 72.92V76Z" fill="#407FC5"/>
<path d="M18.5312 21.125H40.4688L29.5 14.375L18.5312 21.125Z" stroke="white" stroke-width="2" stroke-linecap="round" stroke-linejoin="round"/>
<path d="M21.9067 21.125V29.5625" stroke="white" stroke-width="2" stroke-linecap="round" stroke-linejoin="round"/>
<path d="M26.9692 21.125V29.5625" stroke="white" stroke-width="2" stroke-linecap="round" stroke-linejoin="round"/>
<path d="M32.0317 21.125V29.5625" stroke="white" stroke-width="2" stroke-linecap="round" stroke-linejoin="round"/>
<path d="M37.0942 21.125V29.5625" stroke="white" stroke-width="2" stroke-linecap="round" stroke-linejoin="round"/>
<path d="M19.3755 29.5625H39.6255" stroke="white" stroke-width="2" stroke-linecap="round" stroke-linejoin="round"/>
<path d="M17.688 32.9375H41.313" stroke="white" stroke-width="2" stroke-linecap="round" stroke-linejoin="round"/>
</svg>
