<svg width="64" height="69" viewBox="0 0 64 69" fill="none" xmlns="http://www.w3.org/2000/svg">
<circle cx="32" cy="24" r="24" fill="#407FC5"/>
<path d="M8.964 59.812C8.964 57.316 7.08 55.552 4.704 55.552C2.352 55.552 0.444 57.316 0.444 59.812C0.444 62.32 2.352 64.084 4.704 64.084C7.08 64.084 8.964 62.32 8.964 59.812ZM1.848 59.812C1.848 57.928 3.048 56.752 4.704 56.752C6.36 56.752 7.56 57.928 7.56 59.812C7.56 61.696 6.36 62.896 4.704 62.896C3.048 62.896 1.848 61.696 1.848 59.812ZM11.6782 60.52C11.6782 59.116 12.3022 58.696 13.3102 58.696H13.6582V57.28C12.7222 57.28 12.0622 57.688 11.6782 58.348V57.388H10.3102V64H11.6782V60.52ZM14.4596 60.664C14.4596 62.704 15.8396 64.108 17.5556 64.108C18.6596 64.108 19.4516 63.58 19.8716 63.016V64H21.2516V57.388H19.8716V58.348C19.4636 57.808 18.6956 57.28 17.5796 57.28C15.8396 57.28 14.4596 58.624 14.4596 60.664ZM19.8716 60.688C19.8716 62.116 18.8996 62.92 17.8676 62.92C16.8476 62.92 15.8636 62.092 15.8636 60.664C15.8636 59.236 16.8476 58.468 17.8676 58.468C18.8996 58.468 19.8716 59.272 19.8716 60.688ZM27.7404 64H29.0964V60.1C29.0964 58.252 27.9324 57.28 26.3844 57.28C25.5924 57.28 24.8604 57.604 24.4164 58.144V57.388H23.0484V64H24.4164V60.304C24.4164 59.092 25.0764 58.468 26.0844 58.468C27.0804 58.468 27.7404 59.092 27.7404 60.304V64ZM30.3854 60.664C30.3854 62.704 31.7654 64.108 33.5054 64.108C34.5854 64.108 35.3774 63.568 35.7974 63.004V64.108C35.7974 65.428 35.0054 66.076 33.9494 66.076C33.0014 66.076 32.2694 65.608 32.0654 64.924H30.7094C30.8774 66.388 32.1854 67.264 33.9494 67.264C36.0134 67.264 37.1774 65.908 37.1774 64.108V57.388H35.7974V58.348C35.3894 57.784 34.5854 57.28 33.5054 57.28C31.7654 57.28 30.3854 58.624 30.3854 60.664ZM35.7974 60.688C35.7974 62.116 34.8254 62.92 33.7934 62.92C32.7734 62.92 31.7894 62.092 31.7894 60.664C31.7894 59.236 32.7734 58.468 33.7934 58.468C34.8254 58.468 35.7974 59.272 35.7974 60.688ZM41.6594 56.776H43.8914V64H45.2594V56.776H47.4794V55.66H41.6594V56.776ZM54.8528 57.388H53.4848V61.072C53.4848 62.284 52.8248 62.908 51.8168 62.908C50.8208 62.908 50.1608 62.284 50.1608 61.072V57.388H48.8048V61.276C48.8048 63.124 49.9808 64.096 51.5288 64.096C52.3088 64.096 53.0528 63.772 53.4848 63.208V64H54.8528V57.388ZM56.2018 60.664C56.2018 62.704 57.5818 64.108 59.2978 64.108C60.4018 64.108 61.1938 63.58 61.6138 63.016V64H62.9938V57.388H61.6138V58.348C61.2058 57.808 60.4378 57.28 59.3218 57.28C57.5818 57.28 56.2018 58.624 56.2018 60.664ZM61.6138 60.688C61.6138 62.116 60.6418 62.92 59.6098 62.92C58.5898 62.92 57.6058 62.092 57.6058 60.664C57.6058 59.236 58.5898 58.468 59.6098 58.468C60.6418 58.468 61.6138 59.272 61.6138 60.688Z" fill="#407FC5"/>
<path d="M32 29C34.2091 29 36 27.2091 36 25C36 22.7909 34.2091 21 32 21C29.7909 21 28 22.7909 28 25C28 27.2091 29.7909 29 32 29Z" stroke="white" stroke-width="2" stroke-linecap="round" stroke-linejoin="round"/>
<path d="M25.9998 31.9997C26.6985 31.0684 27.6044 30.3124 28.6458 29.7918C29.6873 29.2711 30.8356 29 31.9999 29C33.1643 29 34.3126 29.271 35.3541 29.7916C36.3955 30.3122 37.3015 31.0681 38.0003 31.9995" stroke="white" stroke-width="2" stroke-linecap="round" stroke-linejoin="round"/>
<path d="M42 35V13C42 12.4477 41.5523 12 41 12L23 12C22.4477 12 22 12.4477 22 13V35C22 35.5523 22.4477 36 23 36H41C41.5523 36 42 35.5523 42 35Z" stroke="white" stroke-width="2" stroke-linecap="round" stroke-linejoin="round"/>
<path d="M28 16H36" stroke="white" stroke-width="2" stroke-linecap="round" stroke-linejoin="round"/>
</svg>
