<svg width="48" height="78" viewBox="0 0 48 78" fill="none" xmlns="http://www.w3.org/2000/svg">
<circle cx="24" cy="24" r="24" fill="#407FC5"/>
<path d="M8.78863 54.13C8.78863 54.82 8.38863 55.31 7.49863 55.31H6.23863V52.98H7.49863C8.38863 52.98 8.78863 53.43 8.78863 54.13ZM5.09863 52.05V59H6.23863V56.22H7.10863L8.70863 59H10.0686L8.34863 56.12C9.51863 55.83 9.95863 54.95 9.95863 54.13C9.95863 53 9.14863 52.05 7.49863 52.05H5.09863ZM11.417 59H12.557V53.49H11.417V59ZM11.997 52.76C12.397 52.76 12.717 52.44 12.717 52.03C12.717 51.62 12.397 51.3 11.997 51.3C11.587 51.3 11.267 51.62 11.267 52.03C11.267 52.44 11.587 52.76 11.997 52.76ZM15.1237 59H16.3237L17.4337 54.93L18.5437 59H19.7437L21.4537 53.49H20.3337L19.1937 57.9L18.0737 53.49H16.8837L15.7137 57.92L14.5637 53.49H13.4037L15.1237 59ZM21.9257 56.22C21.9257 57.92 23.0757 59.09 24.5057 59.09C25.4257 59.09 26.0857 58.65 26.4357 58.18V59H27.5857V53.49H26.4357V54.29C26.0957 53.84 25.4557 53.4 24.5257 53.4C23.0757 53.4 21.9257 54.52 21.9257 56.22ZM26.4357 56.24C26.4357 57.43 25.6257 58.1 24.7657 58.1C23.9157 58.1 23.0957 57.41 23.0957 56.22C23.0957 55.03 23.9157 54.39 24.7657 54.39C25.6257 54.39 26.4357 55.06 26.4357 56.24ZM31.253 57.69L29.703 53.49H28.433L30.603 58.91L29.483 61.59H30.663L34.043 53.49H32.863L31.253 57.69ZM34.5233 56.22C34.5233 57.92 35.6733 59.09 37.1033 59.09C38.0233 59.09 38.6833 58.65 39.0333 58.18V59H40.1833V53.49H39.0333V54.29C38.6933 53.84 38.0533 53.4 37.1233 53.4C35.6733 53.4 34.5233 54.52 34.5233 56.22ZM39.0333 56.24C39.0333 57.43 38.2233 58.1 37.3633 58.1C36.5133 58.1 35.6933 57.41 35.6933 56.22C35.6933 55.03 36.5133 54.39 37.3633 54.39C38.2233 54.39 39.0333 55.06 39.0333 56.24ZM41.8607 57.47C41.8607 58.59 42.4707 59 43.4507 59H44.3507V58.05H43.6507C43.1707 58.05 43.0107 57.88 43.0107 57.47V54.42H44.3507V53.49H43.0107V52.12H41.8607V53.49H41.2107V54.42H41.8607V57.47ZM5.37438 70.25V67.98H6.63438C7.52438 67.98 7.92438 68.4 7.92438 69.12C7.92438 69.82 7.52438 70.25 6.63438 70.25H5.37438ZM9.09438 69.12C9.09438 67.99 8.28438 67.05 6.63438 67.05H4.23438V74H5.37438V71.18H6.63438C8.44438 71.18 9.09438 70.11 9.09438 69.12ZM9.80164 71.22C9.80164 72.92 10.9516 74.09 12.3816 74.09C13.3016 74.09 13.9616 73.65 14.3116 73.18V74H15.4616V68.49H14.3116V69.29C13.9716 68.84 13.3316 68.4 12.4016 68.4C10.9516 68.4 9.80164 69.52 9.80164 71.22ZM14.3116 71.24C14.3116 72.43 13.5016 73.1 12.6416 73.1C11.7916 73.1 10.9716 72.41 10.9716 71.22C10.9716 70.03 11.7916 69.39 12.6416 69.39C13.5016 69.39 14.3116 70.06 14.3116 71.24ZM20.869 74H21.999V70.75C21.999 69.21 21.029 68.4 19.739 68.4C19.079 68.4 18.469 68.67 18.099 69.12V68.49H16.959V74H18.099V70.92C18.099 69.91 18.649 69.39 19.489 69.39C20.319 69.39 20.869 69.91 20.869 70.92V74ZM23.0731 71.22C23.0731 72.92 24.2231 74.09 25.6731 74.09C26.5731 74.09 27.2331 73.64 27.5831 73.17V74.09C27.5831 75.19 26.9231 75.73 26.0431 75.73C25.2531 75.73 24.6431 75.34 24.4731 74.77H23.3431C23.4831 75.99 24.5731 76.72 26.0431 76.72C27.7631 76.72 28.7331 75.59 28.7331 74.09V68.49H27.5831V69.29C27.2431 68.82 26.5731 68.4 25.6731 68.4C24.2231 68.4 23.0731 69.52 23.0731 71.22ZM27.5831 71.24C27.5831 72.43 26.7731 73.1 25.9131 73.1C25.0631 73.1 24.2431 72.41 24.2431 71.22C24.2431 70.03 25.0631 69.39 25.9131 69.39C26.7731 69.39 27.5831 70.06 27.5831 71.24ZM30.2305 74H31.3705V71.63L33.4105 74H34.9505L32.4105 71.25L34.9505 68.49H33.3705L31.3705 70.9V66.6H30.2305V74ZM35.3876 71.22C35.3876 72.92 36.5376 74.09 37.9676 74.09C38.8876 74.09 39.5476 73.65 39.8976 73.18V74H41.0476V68.49H39.8976V69.29C39.5576 68.84 38.9176 68.4 37.9876 68.4C36.5376 68.4 35.3876 69.52 35.3876 71.22ZM39.8976 71.24C39.8976 72.43 39.0876 73.1 38.2276 73.1C37.3776 73.1 36.5576 72.41 36.5576 71.22C36.5576 70.03 37.3776 69.39 38.2276 69.39C39.0876 69.39 39.8976 70.06 39.8976 71.24ZM42.7249 72.47C42.7249 73.59 43.3349 74 44.3149 74H45.2149V73.05H44.5149C44.0349 73.05 43.8749 72.88 43.8749 72.47V69.42H45.2149V68.49H43.8749V67.12H42.7249V68.49H42.0749V69.42H42.7249V72.47Z" fill="#407FC5"/>
<path d="M25 14L25.7071 13.2929C25.5196 13.1054 25.2652 13 25 13V14ZM31.75 20.75H32.75C32.75 20.4848 32.6446 20.2304 32.4571 20.0429L31.75 20.75ZM29.9072 33.8821L30.3612 34.7732H30.3612L29.9072 33.8821ZM31.3821 32.4072L30.4911 31.9532L30.4911 31.9532L31.3821 32.4072ZM16.3679 32.4072L17.2589 31.9532L17.2589 31.9532L16.3679 32.4072ZM17.8428 33.8821L17.3888 34.7732H17.3888L17.8428 33.8821ZM17.8428 14.3679L18.2968 15.2589L17.8428 14.3679ZM16.3679 15.8428L17.2589 16.2968L16.3679 15.8428ZM25.2452 19.5215L24.3542 19.9755L25.2452 19.5215ZM26.2285 20.5048L26.6825 19.6138L26.2285 20.5048ZM19.5 29.75C19.5 30.3023 19.9477 30.75 20.5 30.75C21.0523 30.75 21.5 30.3023 21.5 29.75H19.5ZM21.5 27.5C21.5 26.9477 21.0523 26.5 20.5 26.5C19.9477 26.5 19.5 26.9477 19.5 27.5H21.5ZM22.875 29.75C22.875 30.3023 23.3227 30.75 23.875 30.75C24.4273 30.75 24.875 30.3023 24.875 29.75H22.875ZM24.875 23C24.875 22.4477 24.4273 22 23.875 22C23.3227 22 22.875 22.4477 22.875 23H24.875ZM26.25 29.75C26.25 30.3023 26.6977 30.75 27.25 30.75C27.8023 30.75 28.25 30.3023 28.25 29.75H26.25ZM28.25 25.25C28.25 24.6977 27.8023 24.25 27.25 24.25C26.6977 24.25 26.25 24.6977 26.25 25.25H28.25ZM25 13H21.4V15H25V13ZM15 19.4V28.85H17V19.4H15ZM21.4 35.25H26.35V33.25H21.4V35.25ZM32.75 28.85V20.75H30.75V28.85H32.75ZM32.4571 20.0429L25.7071 13.2929L24.2929 14.7071L31.0429 21.4571L32.4571 20.0429ZM26.35 35.25C27.2786 35.25 28.0352 35.2508 28.6481 35.2007C29.2728 35.1497 29.8358 35.0409 30.3612 34.7732L29.4532 32.9911C29.2567 33.0913 28.9862 33.1664 28.4853 33.2073C27.9726 33.2492 27.3116 33.25 26.35 33.25V35.25ZM30.75 28.85C30.75 29.8116 30.7492 30.4726 30.7073 30.9853C30.6664 31.4862 30.5913 31.7567 30.4911 31.9532L32.2732 32.8612C32.5409 32.3358 32.6497 31.7728 32.7007 31.1481C32.7508 30.5352 32.75 29.7786 32.75 28.85H30.75ZM30.3612 34.7732C31.1844 34.3537 31.8537 33.6844 32.2732 32.8612L30.4911 31.9532C30.2634 32.4001 29.9001 32.7634 29.4532 32.9911L30.3612 34.7732ZM15 28.85C15 29.7786 14.9992 30.5352 15.0493 31.1481C15.1003 31.7728 15.2091 32.3358 15.4768 32.8612L17.2589 31.9532C17.1587 31.7567 17.0836 31.4862 17.0427 30.9853C17.0008 30.4726 17 29.8116 17 28.85H15ZM21.4 33.25C20.4384 33.25 19.7774 33.2492 19.2647 33.2073C18.7638 33.1664 18.4933 33.0913 18.2968 32.9911L17.3888 34.7732C17.9142 35.0409 18.4772 35.1497 19.1019 35.2007C19.7148 35.2508 20.4714 35.25 21.4 35.25V33.25ZM15.4768 32.8612C15.8963 33.6844 16.5656 34.3537 17.3888 34.7732L18.2968 32.9911C17.8499 32.7634 17.4866 32.4001 17.2589 31.9532L15.4768 32.8612ZM21.4 13C20.4714 13 19.7148 12.9992 19.1019 13.0493C18.4772 13.1003 17.9142 13.2091 17.3888 13.4768L18.2968 15.2589C18.4933 15.1587 18.7638 15.0836 19.2647 15.0427C19.7774 15.0008 20.4384 15 21.4 15V13ZM17 19.4C17 18.4384 17.0008 17.7774 17.0427 17.2647C17.0836 16.7638 17.1587 16.4933 17.2589 16.2968L15.4768 15.3888C15.2091 15.9142 15.1003 16.4772 15.0493 17.1019C14.9992 17.7148 15 18.4714 15 19.4H17ZM17.3888 13.4768C16.5656 13.8963 15.8963 14.5656 15.4768 15.3888L17.2589 16.2968C17.4866 15.8499 17.8499 15.4866 18.2968 15.2589L17.3888 13.4768ZM24 14V17.15H26V14H24ZM28.6 21.75H31.75V19.75H28.6V21.75ZM24 17.15C24 17.7636 23.9992 18.2839 24.034 18.7092C24.0697 19.1463 24.1478 19.5704 24.3542 19.9755L26.1362 19.0675C26.0974 18.9913 26.0529 18.8597 26.0273 18.5464C26.0008 18.2213 26 17.7966 26 17.15H24ZM28.6 19.75C27.9534 19.75 27.5287 19.7492 27.2036 19.7227C26.8903 19.6971 26.7587 19.6526 26.6825 19.6138L25.7745 21.3958C26.1796 21.6022 26.6037 21.6803 27.0408 21.716C27.4661 21.7508 27.9864 21.75 28.6 21.75V19.75ZM24.3542 19.9755C24.6658 20.587 25.163 21.0842 25.7745 21.3958L26.6825 19.6138C26.4473 19.4939 26.2561 19.3027 26.1362 19.0675L24.3542 19.9755ZM21.5 29.75V27.5H19.5V29.75H21.5ZM24.875 29.75V23H22.875V29.75H24.875ZM28.25 29.75V25.25H26.25V29.75H28.25Z" fill="white"/>
</svg>
