<svg width="69" height="69" viewBox="0 0 69 69" fill="none" xmlns="http://www.w3.org/2000/svg">
<circle cx="35" cy="24" r="24" fill="#407FC5"/>
<path d="M2.268 59.5V56.776H3.78C4.848 56.776 5.328 57.28 5.328 58.144C5.328 58.984 4.848 59.5 3.78 59.5H2.268ZM6.732 58.144C6.732 56.788 5.76 55.66 3.78 55.66H0.9V64H2.268V60.616H3.78C5.952 60.616 6.732 59.332 6.732 58.144ZM10.8207 58.432C11.8407 58.432 12.6447 59.08 12.6687 60.1H9.00872C9.15272 59.056 9.89672 58.432 10.8207 58.432ZM13.9167 62.032H12.4407C12.1887 62.548 11.7207 62.956 10.8807 62.956C9.87272 62.956 9.09272 62.296 8.99672 61.204H14.0487C14.0847 60.976 14.0967 60.76 14.0967 60.532C14.0967 58.588 12.7647 57.28 10.8807 57.28C8.92472 57.28 7.58072 58.612 7.58072 60.688C7.58072 62.764 8.98472 64.108 10.8807 64.108C12.5007 64.108 13.5447 63.184 13.9167 62.032ZM16.811 60.52C16.811 59.116 17.435 58.696 18.443 58.696H18.791V57.28C17.855 57.28 17.195 57.688 16.811 58.348V57.388H15.443V64H16.811V60.52ZM24.7404 64H26.0964V60.1C26.0964 58.252 24.9324 57.28 23.3844 57.28C22.5924 57.28 21.8604 57.604 21.4164 58.144V57.388H20.0484V64H21.4164V60.304C21.4164 59.092 22.0764 58.468 23.0844 58.468C24.0804 58.468 24.7404 59.092 24.7404 60.304V64ZM27.8414 64H29.2094V57.388H27.8414V64ZM28.5374 56.512C29.0174 56.512 29.4014 56.128 29.4014 55.636C29.4014 55.144 29.0174 54.76 28.5374 54.76C28.0454 54.76 27.6614 55.144 27.6614 55.636C27.6614 56.128 28.0454 56.512 28.5374 56.512ZM31.0055 64H32.3735V61.156L34.8215 64H36.6695L33.6215 60.7L36.6695 57.388H34.7735L32.3735 60.28V55.12H31.0055V64ZM37.194 60.664C37.194 62.704 38.574 64.108 40.29 64.108C41.394 64.108 42.186 63.58 42.606 63.016V64H43.986V57.388H42.606V58.348C42.198 57.808 41.43 57.28 40.314 57.28C38.574 57.28 37.194 58.624 37.194 60.664ZM42.606 60.688C42.606 62.116 41.634 62.92 40.602 62.92C39.582 62.92 38.598 62.092 38.598 60.664C38.598 59.236 39.582 58.468 40.602 58.468C41.634 58.468 42.606 59.272 42.606 60.688ZM45.7828 64H47.1508V60.304C47.1508 59.092 47.8108 58.468 48.8188 58.468C49.8148 58.468 50.4748 59.092 50.4748 60.304V64H51.8308V60.1C51.8308 58.252 50.6788 57.28 49.2028 57.28C48.3508 57.28 47.6068 57.604 47.1508 58.156V55.12H45.7828V64ZM53.1198 60.664C53.1198 62.704 54.4998 64.108 56.2158 64.108C57.3198 64.108 58.1118 63.58 58.5318 63.016V64H59.9118V57.388H58.5318V58.348C58.1238 57.808 57.3558 57.28 56.2398 57.28C54.4998 57.28 53.1198 58.624 53.1198 60.664ZM58.5318 60.688C58.5318 62.116 57.5598 62.92 56.5278 62.92C55.5078 62.92 54.5238 62.092 54.5238 60.664C54.5238 59.236 55.5078 58.468 56.5278 58.468C57.5598 58.468 58.5318 59.272 58.5318 60.688ZM66.4006 64H67.7566V60.1C67.7566 58.252 66.5926 57.28 65.0446 57.28C64.2526 57.28 63.5206 57.604 63.0766 58.144V57.388H61.7086V64H63.0766V60.304C63.0766 59.092 63.7366 58.468 64.7446 58.468C65.7406 58.468 66.4006 59.092 66.4006 60.304V64Z" fill="#407FC5"/>
<path d="M38 22H43" stroke="white" stroke-width="2" stroke-linecap="round" stroke-linejoin="round"/>
<path d="M38 26H43" stroke="white" stroke-width="2" stroke-linecap="round" stroke-linejoin="round"/>
<path d="M30.5125 26C32.1693 26 33.5125 24.6569 33.5125 23C33.5125 21.3431 32.1693 20 30.5125 20C28.8556 20 27.5125 21.3431 27.5125 23C27.5125 24.6569 28.8556 26 30.5125 26Z" stroke="white" stroke-width="2" stroke-linecap="round" stroke-linejoin="round"/>
<path d="M26.6387 28.9999C26.8606 28.1413 27.3615 27.3807 28.0627 26.8377C28.7639 26.2947 29.6256 26 30.5125 26C31.3994 26 32.2611 26.2946 32.9623 26.8375C33.6636 27.3805 34.1645 28.141 34.3865 28.9997" stroke="white" stroke-width="2" stroke-linecap="round" stroke-linejoin="round"/>
<path d="M46 14H24C23.4477 14 23 14.4477 23 15V33C23 33.5523 23.4477 34 24 34H46C46.5523 34 47 33.5523 47 33V15C47 14.4477 46.5523 14 46 14Z" stroke="white" stroke-width="2" stroke-linecap="round" stroke-linejoin="round"/>
</svg>
