<svg width="64" height="69" viewBox="0 0 64 69" fill="none" xmlns="http://www.w3.org/2000/svg">
<circle cx="32" cy="24" r="24" fill="#407FC5"/>
<path d="M6.528 61.636C6.528 58.588 2.112 59.764 2.112 57.88C2.112 57.076 2.724 56.692 3.516 56.716C4.38 56.74 4.872 57.256 4.92 57.82H6.432C6.312 56.392 5.184 55.552 3.588 55.552C1.884 55.552 0.72 56.464 0.72 57.928C0.72 61 5.148 59.692 5.148 61.708C5.148 62.416 4.608 62.932 3.648 62.932C2.7 62.932 2.22 62.38 2.16 61.696H0.696C0.696 63.172 1.98 64.084 3.648 64.084C5.508 64.084 6.528 62.884 6.528 61.636ZM14.1302 57.388H12.7622V61.072C12.7622 62.284 12.1022 62.908 11.0942 62.908C10.0982 62.908 9.43819 62.284 9.43819 61.072V57.388H8.08219V61.276C8.08219 63.124 9.25819 64.096 10.8062 64.096C11.5862 64.096 12.3302 63.772 12.7622 63.208V64H14.1302V57.388ZM15.4792 60.664C15.4792 62.704 16.8592 64.108 18.5752 64.108C19.6792 64.108 20.4712 63.58 20.8912 63.016V64H22.2712V57.388H20.8912V58.348C20.4832 57.808 19.7152 57.28 18.5992 57.28C16.8592 57.28 15.4792 58.624 15.4792 60.664ZM20.8912 60.688C20.8912 62.116 19.9192 62.92 18.8872 62.92C17.8672 62.92 16.8832 62.092 16.8832 60.664C16.8832 59.236 17.8672 58.468 18.8872 58.468C19.9192 58.468 20.8912 59.272 20.8912 60.688ZM33.44 64H34.796V60.1C34.796 58.252 33.62 57.28 32.072 57.28C31.112 57.28 30.176 57.784 29.768 58.588C29.312 57.724 28.436 57.28 27.392 57.28C26.6 57.28 25.88 57.604 25.436 58.144V57.388H24.068V64H25.436V60.304C25.436 59.092 26.096 58.468 27.104 58.468C28.1 58.468 28.76 59.092 28.76 60.304V64H30.116V60.304C30.116 59.092 30.776 58.468 31.784 58.468C32.78 58.468 33.44 59.092 33.44 60.304V64ZM36.5367 64H37.9047V57.388H36.5367V64ZM37.2327 56.512C37.7127 56.512 38.0967 56.128 38.0967 55.636C38.0967 55.144 37.7127 54.76 37.2327 54.76C36.7407 54.76 36.3567 55.144 36.3567 55.636C36.3567 56.128 36.7407 56.512 37.2327 56.512ZM42.818 64H44.186V55.66H42.818V64ZM50.914 62.152C50.842 59.764 47.11 60.508 47.11 59.176C47.11 58.732 47.494 58.432 48.226 58.432C48.97 58.432 49.414 58.828 49.462 59.404H50.83C50.758 58.084 49.774 57.28 48.274 57.28C46.714 57.28 45.73 58.132 45.73 59.188C45.73 61.612 49.57 60.868 49.57 62.164C49.57 62.62 49.15 62.956 48.358 62.956C47.602 62.956 47.086 62.512 47.038 61.972H45.622C45.682 63.172 46.798 64.108 48.382 64.108C49.942 64.108 50.914 63.268 50.914 62.152ZM52.6082 62.164C52.6082 63.508 53.3402 64 54.5162 64H55.5962V62.86H54.7562C54.1802 62.86 53.9882 62.656 53.9882 62.164V58.504H55.5962V57.388H53.9882V55.744H52.6082V57.388H51.8282V58.504H52.6082V62.164ZM58.225 60.52C58.225 59.116 58.849 58.696 59.857 58.696H60.205V57.28C59.269 57.28 58.609 57.688 58.225 58.348V57.388H56.857V64H58.225V60.52ZM61.4625 64H62.8305V57.388H61.4625V64ZM62.1585 56.512C62.6385 56.512 63.0225 56.128 63.0225 55.636C63.0225 55.144 62.6385 54.76 62.1585 54.76C61.6665 54.76 61.2825 55.144 61.2825 55.636C61.2825 56.128 61.6665 56.512 62.1585 56.512Z" fill="#407FC5"/>
<path d="M27 28C30.5899 28 33.5 25.0899 33.5 21.5C33.5 17.9101 30.5899 15 27 15C23.4101 15 20.5 17.9101 20.5 21.5C20.5 25.0899 23.4101 28 27 28Z" stroke="white" stroke-width="2" stroke-miterlimit="10"/>
<path d="M35.4265 15.2421C36.3205 14.9902 37.2582 14.9328 38.1762 15.0738C39.0943 15.2148 39.9715 15.5509 40.7487 16.0595C41.526 16.568 42.1852 17.2372 42.682 18.022C43.1789 18.8068 43.5018 19.6889 43.629 20.609C43.7562 21.5291 43.6847 22.4658 43.4194 23.3559C43.1541 24.2461 42.7012 25.069 42.0911 25.7694C41.481 26.4697 40.7278 27.0312 39.8825 27.416C39.0371 27.8007 38.119 27.9999 37.1902 28" stroke="white" stroke-width="2" stroke-linecap="round" stroke-linejoin="round"/>
<path d="M17.9995 32.6746C19.0147 31.2306 20.3624 30.052 21.9288 29.2384C23.4953 28.4248 25.2345 28.0001 26.9996 28C28.7648 27.9999 30.504 28.4246 32.0705 29.238C33.637 30.0515 34.9848 31.23 36.0001 32.6739" stroke="white" stroke-width="2" stroke-linecap="round" stroke-linejoin="round"/>
<path d="M37.1902 28C38.9555 27.9987 40.6951 28.4228 42.2617 29.2364C43.8284 30.05 45.1759 31.2291 46.1902 32.6739" stroke="white" stroke-width="2" stroke-linecap="round" stroke-linejoin="round"/>
</svg>
