<svg width="20" height="17" viewBox="0 0 20 17" fill="none" xmlns="http://www.w3.org/2000/svg">
<path d="M6.2918 17C13.8371 17 17.9652 10.4589 17.9652 4.78824C17.9652 4.60435 17.9613 4.41638 17.9535 4.23249C18.7566 3.62496 19.4496 2.87245 20 2.01031C19.2521 2.35841 18.458 2.58575 17.6449 2.68457C18.5011 2.14771 19.1421 1.30434 19.4492 0.310783C18.6438 0.81012 17.763 1.16236 16.8445 1.3524C16.2257 0.664539 15.4075 0.209091 14.5164 0.0564758C13.6253 -0.0961397 12.711 0.0625776 11.9148 0.508089C11.1186 0.953599 10.4848 1.66109 10.1115 2.52118C9.73825 3.38126 9.64619 4.34604 9.84961 5.26635C8.21874 5.18073 6.62328 4.73754 5.16665 3.9655C3.71002 3.19346 2.42474 2.10981 1.39414 0.784804C0.870333 1.72956 0.710047 2.84751 0.945859 3.91145C1.18167 4.97538 1.79589 5.90548 2.66367 6.51269C2.01219 6.49106 1.37498 6.30756 0.804688 5.97738V6.0305C0.804104 7.02195 1.13175 7.98301 1.73192 8.75032C2.3321 9.51763 3.16777 10.0438 4.09687 10.2395C3.49338 10.4122 2.85999 10.4374 2.2457 10.313C2.50788 11.1657 3.01798 11.9114 3.70481 12.4462C4.39164 12.981 5.22093 13.2781 6.07695 13.2961C4.62369 14.4903 2.82848 15.138 0.980469 15.135C0.652739 15.1344 0.325333 15.1134 0 15.072C1.87738 16.332 4.06128 17.0012 6.2918 17Z" fill="#407FC5"/>
</svg>
