<svg width="26" height="18" viewBox="0 0 26 18" fill="none" xmlns="http://www.w3.org/2000/svg">
<path d="M25.5234 3.89177C25.5234 3.89177 25.2804 2.17649 24.5321 1.42332C23.5846 0.432056 22.5253 0.427197 22.0394 0.368887C18.5602 0.116211 13.3366 0.116211 13.3366 0.116211H13.3269C13.3269 0.116211 8.10332 0.116211 4.62416 0.368887C4.13825 0.427197 3.07895 0.432056 2.13142 1.42332C1.38311 2.17649 1.14501 3.89177 1.14501 3.89177C1.14501 3.89177 0.892334 5.90832 0.892334 7.92001V9.80536C0.892334 11.817 1.14015 13.8336 1.14015 13.8336C1.14015 13.8336 1.38311 15.5489 2.12656 16.302C3.07409 17.2933 4.31804 17.2593 4.87198 17.3662C6.86423 17.5557 13.3318 17.614 13.3318 17.614C13.3318 17.614 18.5602 17.6043 22.0394 17.3565C22.5253 17.2982 23.5846 17.2933 24.5321 16.302C25.2804 15.5489 25.5234 13.8336 25.5234 13.8336C25.5234 13.8336 25.7712 11.8219 25.7712 9.80536V7.92001C25.7712 5.90832 25.5234 3.89177 25.5234 3.89177ZM10.7613 12.094V5.1017L17.4815 8.61001L10.7613 12.094Z" fill="#407FC5"/>
</svg>
